<svg width="264" height="60" viewBox="0 0 264 60" fill="none" xmlns="http://www.w3.org/2000/svg">
<path fill-rule="evenodd" clip-rule="evenodd" d="M30.4234 1.95126C59.4234 -1.04872 64.4234 -0.048739 71.4234 5.95126C77.8659 11.4734 82.4234 23.9513 75.4234 37.9513C68.4234 51.9513 61.2436 57.4668 52.4234 58.9513C46.3729 59.9697 28.4234 53.9513 10.4234 37.9513C0.368057 29.0132 -1.0766 20.9513 1.4234 15.9513C4.4234 9.95128 10.7313 6.84865 16.4234 4.95128C22.4234 2.95128 25.4135 2.46952 30.4234 1.95126ZM46.8425 31.8924C46.9264 32.025 47.0222 32.1517 47.1297 32.2723L47.125 32.2834C46.9375 32.792 46.6771 33.3442 46.3437 33.9401C46.0312 34.5213 45.625 35.0663 45.125 35.5749C44.6458 36.069 44.0625 36.4832 43.375 36.8174C42.6875 37.1371 41.8958 37.297 41 37.297C40.125 37.297 39.3333 37.1153 38.625 36.752C38.5486 36.7117 38.4731 36.6698 38.3982 36.6264C38.4597 36.2464 38.5444 35.8673 38.6523 35.4891C38.9032 34.5999 39.3385 33.7657 39.9583 32.9864C40.1944 32.7066 40.4601 32.4319 40.7552 32.1621C41.0651 31.8824 41.4045 31.6326 41.7734 31.4128C42.1571 31.193 42.5703 31.0182 43.013 30.8883C43.4705 30.7484 43.9575 30.6785 44.474 30.6785C44.9905 30.6785 45.3963 30.7384 45.6914 30.8583C45.9865 30.9782 46.2227 31.1281 46.3997 31.3079C46.5768 31.4877 46.7244 31.6826 46.8425 31.8924ZM35 38.8011C35 38.7177 35.0007 38.6339 35.0021 38.5497C34.3047 38.1542 33.679 37.7003 33.125 37.188C32.2292 36.3451 31.4896 35.4078 30.9062 34.376C30.3437 33.3442 29.8958 32.3124 29.5625 31.2807C29.0625 29.7838 28.6771 28.287 28.4062 26.7902C28.1354 25.2788 28 23.7675 28 22.2561C28 21.3697 28.0521 20.4541 28.1562 19.5095C28.2812 18.5649 28.4896 17.6349 28.7812 16.7193C29.0729 15.7893 29.4687 14.8955 29.9687 14.0381C30.4687 13.1662 31.0937 12.3669 31.8437 11.6403C32.5937 10.8992 33.4792 10.2452 34.5 9.67847C35.5417 9.11172 36.75 8.66848 38.125 8.34877C38.625 8.21798 39.1458 8.13079 39.6875 8.08719C40.2292 8.02906 40.7708 8 41.3125 8C42.3958 8 43.4271 8.12352 44.4062 8.37057C45.3854 8.61762 46.2396 8.96639 46.9687 9.41689C47.7187 9.86739 48.3021 10.4124 48.7187 11.0518C49.1562 11.6912 49.375 12.4033 49.375 13.188C49.375 13.4496 49.2917 13.6458 49.125 13.7766C48.9583 13.9074 48.6667 13.9728 48.25 13.9728C47.4792 13.9728 46.875 13.8856 46.4375 13.7112C46.0208 13.5368 45.6771 13.3188 45.4062 13.0572C45.1354 12.7956 44.9062 12.5123 44.7187 12.2071C44.5521 11.9019 44.3437 11.6185 44.0937 11.3569C43.8437 11.0954 43.5104 10.8774 43.0937 10.703C42.6771 10.5286 42.1042 10.4414 41.375 10.4414C40.6458 10.4414 39.9583 10.5431 39.3125 10.7466C38.6875 10.9355 38.1042 11.1898 37.5625 11.5095C37.0417 11.8292 36.5625 12.1926 36.125 12.5995C35.7083 12.9918 35.3333 13.3915 35 13.7984C34.125 14.9319 33.5104 16.1453 33.1562 17.4387C32.8021 18.7175 32.625 20.0036 32.625 21.297C32.625 21.733 32.6458 22.2997 32.6875 22.9973C32.75 23.6803 32.8333 24.436 32.9375 25.2643C33.0625 26.0926 33.2292 26.9718 33.4375 27.9019C33.6458 28.8174 33.8958 29.7184 34.1875 30.6049C34.5 31.4914 34.8646 32.3415 35.2812 33.1553C35.4697 33.5058 35.6678 33.8374 35.8755 34.1502C36.026 33.8096 36.199 33.4766 36.3945 33.1512C36.7487 32.5518 37.1914 32.0023 37.7227 31.5027C38.2539 30.9932 38.8811 30.5436 39.6042 30.154C40.342 29.7643 41.1979 29.4596 42.1719 29.2398C42.526 29.1499 42.895 29.0899 43.2786 29.0599C43.6623 29.02 44.046 29 44.4297 29C45.197 29 47.8533 29.3302 48.5469 29.5C49.2405 29.6698 50.674 30.3688 51.1905 30.6785C51.6366 30.9385 51.6962 31.0311 51.8786 31.3144C51.9134 31.3685 51.9527 31.4295 52 31.5C52.365 32.0436 52.2216 32.7901 51.9304 33.4173C51.9073 33.4898 51.8784 33.5624 51.8437 33.6349C51.7604 33.8383 51.6667 34.0418 51.5625 34.2452C51.1042 35.0736 50.5417 35.8438 49.875 36.5559C49.2083 37.2534 48.4375 37.8565 47.5625 38.3651C46.6875 38.8737 45.6979 39.2734 44.5937 39.564C43.4896 39.8547 42.2708 40 40.9375 40C40.013 40 39.1566 39.9287 38.3683 39.7861C38.4047 40.1245 38.4477 40.4855 38.4974 40.8692C38.5859 41.4387 38.704 42.0431 38.8516 42.6826C38.9991 43.312 39.1762 43.9314 39.3828 44.5409C39.6042 45.1503 39.8624 45.7348 40.1576 46.2943C40.4674 46.8538 40.8142 47.3433 41.1979 47.7629C41.5964 48.1826 42.0391 48.5173 42.526 48.767C43.0278 49.0168 43.5885 49.1417 44.2083 49.1417C44.8429 49.1417 45.4036 49.0318 45.8906 48.812C46.3776 48.5822 46.7908 48.2975 47.1302 47.9578C47.4844 47.6081 47.7721 47.2334 47.9935 46.8338C48.2296 46.4242 48.4141 46.0445 48.5469 45.6948C48.5911 45.5949 48.628 45.505 48.6576 45.4251C48.7018 45.3451 48.7535 45.2752 48.8125 45.2153C48.8863 45.1553 48.9748 45.1104 49.0781 45.0804C49.1814 45.0504 49.329 45.0354 49.5208 45.0354C49.7274 45.0354 49.9709 45.0654 50.2513 45.1253C50.5464 45.1753 50.8194 45.2502 51.0703 45.3501C51.3359 45.45 51.5573 45.5699 51.7344 45.7098C51.9115 45.8497 52 46.0045 52 46.1744C52 46.3243 51.9631 46.4741 51.8893 46.624C51.8303 46.7639 51.7639 46.9037 51.6901 47.0436C51.3655 47.6131 50.967 48.1426 50.4948 48.6322C50.0226 49.1117 49.4766 49.5263 48.8568 49.876C48.237 50.2257 47.536 50.5005 46.7539 50.7003C45.9718 50.9001 45.1085 51 44.1641 51C42.9097 51 41.8325 50.8202 40.9323 50.4605C40.0321 50.1008 39.2648 49.6362 38.6302 49.0668C37.9957 48.4873 37.4718 47.8429 37.0586 47.1335C36.6602 46.4242 36.3429 45.7148 36.1068 45.0054C35.7526 43.9764 35.4796 42.9473 35.2878 41.9183C35.0959 40.8792 35 39.8401 35 38.8011Z" fill="white"/>
<path d="M105.758 33.5801H110.592C110.463 35.291 109.988 36.8086 109.168 38.1328C108.348 39.4453 107.205 40.4766 105.74 41.2266C104.275 41.9766 102.5 42.3516 100.414 42.3516C98.8086 42.3516 97.3613 42.0703 96.0723 41.5078C94.7949 40.9336 93.6992 40.1191 92.7852 39.0645C91.8828 37.998 91.1914 36.7207 90.7109 35.2324C90.2305 33.7324 89.9902 32.0508 89.9902 30.1875V28.2363C89.9902 26.373 90.2363 24.6914 90.7285 23.1914C91.2207 21.6914 91.9238 20.4141 92.8379 19.3594C93.7637 18.293 94.8711 17.4727 96.1602 16.8984C97.4609 16.3242 98.9141 16.0371 100.52 16.0371C102.605 16.0371 104.369 16.4238 105.811 17.1973C107.252 17.959 108.371 19.0078 109.168 20.3438C109.965 21.6797 110.445 23.2148 110.609 24.9492H105.775C105.682 23.8711 105.447 22.957 105.072 22.207C104.709 21.457 104.158 20.8887 103.42 20.502C102.693 20.1035 101.727 19.9043 100.52 19.9043C99.582 19.9043 98.7559 20.0801 98.041 20.4316C97.3379 20.7832 96.752 21.3105 96.2832 22.0137C95.8145 22.7051 95.4629 23.5723 95.2285 24.6152C94.9941 25.6465 94.877 26.8418 94.877 28.2012V30.1875C94.877 31.4883 94.9824 32.6543 95.1934 33.6855C95.4043 34.7168 95.7324 35.5898 96.1777 36.3047C96.623 37.0195 97.1973 37.5645 97.9004 37.9395C98.6035 38.3145 99.4414 38.502 100.414 38.502C101.598 38.502 102.559 38.3145 103.297 37.9395C104.047 37.5645 104.615 37.0137 105.002 36.2871C105.4 35.5605 105.652 34.6582 105.758 33.5801ZM118.906 15V42H114.248V15H118.906ZM131.879 42.3516C130.438 42.3516 129.143 42.1172 127.994 41.6484C126.846 41.1797 125.867 40.5293 125.059 39.6973C124.262 38.8535 123.646 37.875 123.213 36.7617C122.791 35.6367 122.58 34.4297 122.58 33.1406V32.4375C122.58 30.9727 122.791 29.6426 123.213 28.4473C123.635 27.2402 124.232 26.2031 125.006 25.3359C125.779 24.4688 126.705 23.8008 127.783 23.332C128.861 22.8633 130.051 22.6289 131.352 22.6289C132.699 22.6289 133.889 22.8574 134.92 23.3145C135.951 23.7598 136.812 24.3926 137.504 25.2129C138.195 26.0332 138.717 27.0176 139.068 28.166C139.42 29.3027 139.596 30.5625 139.596 31.9453V33.8965H124.689V30.6973H135.025V30.3457C135.002 29.6074 134.861 28.9336 134.604 28.3242C134.346 27.7031 133.947 27.2109 133.408 26.8477C132.869 26.4727 132.172 26.2852 131.316 26.2852C130.625 26.2852 130.021 26.4375 129.506 26.7422C129.002 27.0352 128.58 27.457 128.24 28.0078C127.912 28.5469 127.666 29.1914 127.502 29.9414C127.338 30.6914 127.256 31.5234 127.256 32.4375V33.1406C127.256 33.9375 127.361 34.6758 127.572 35.3555C127.795 36.0352 128.117 36.627 128.539 37.1309C128.973 37.623 129.488 38.0098 130.086 38.291C130.695 38.5605 131.387 38.6953 132.16 38.6953C133.133 38.6953 134.012 38.5078 134.797 38.1328C135.594 37.7461 136.285 37.1777 136.871 36.4277L139.209 38.8535C138.811 39.4395 138.271 40.002 137.592 40.541C136.924 41.0801 136.115 41.5195 135.166 41.8594C134.217 42.1875 133.121 42.3516 131.879 42.3516ZM153.184 37.957V29.1855C153.184 28.541 153.072 27.9844 152.85 27.5156C152.627 27.0469 152.287 26.6836 151.83 26.4258C151.373 26.168 150.793 26.0391 150.09 26.0391C149.469 26.0391 148.924 26.1445 148.455 26.3555C147.998 26.5664 147.646 26.8652 147.4 27.252C147.154 27.627 147.031 28.0605 147.031 28.5527H142.373C142.373 27.7676 142.561 27.0234 142.936 26.3203C143.311 25.6055 143.844 24.9727 144.535 24.4219C145.238 23.8594 146.076 23.4199 147.049 23.1035C148.033 22.7871 149.135 22.6289 150.354 22.6289C151.795 22.6289 153.078 22.875 154.203 23.3672C155.34 23.8477 156.23 24.5742 156.875 25.5469C157.531 26.5195 157.859 27.7441 157.859 29.2207V37.5176C157.859 38.4668 157.918 39.2812 158.035 39.9609C158.164 40.6289 158.352 41.209 158.598 41.7012V42H153.869C153.646 41.5195 153.477 40.9102 153.359 40.1719C153.242 39.4219 153.184 38.6836 153.184 37.957ZM153.834 30.416L153.869 33.1758H150.934C150.207 33.1758 149.568 33.252 149.018 33.4043C148.467 33.5449 148.016 33.7559 147.664 34.0371C147.312 34.3066 147.049 34.6348 146.873 35.0215C146.697 35.3965 146.609 35.8242 146.609 36.3047C146.609 36.7734 146.715 37.1953 146.926 37.5703C147.148 37.9453 147.465 38.2441 147.875 38.4668C148.297 38.6777 148.789 38.7832 149.352 38.7832C150.172 38.7832 150.887 38.6191 151.496 38.291C152.105 37.9512 152.58 37.541 152.92 37.0605C153.26 36.5801 153.441 36.123 153.465 35.6895L154.801 37.6934C154.637 38.1738 154.391 38.6836 154.062 39.2227C153.734 39.7617 153.312 40.2656 152.797 40.7344C152.281 41.2031 151.66 41.5898 150.934 41.8945C150.207 42.1992 149.363 42.3516 148.402 42.3516C147.172 42.3516 146.07 42.1055 145.098 41.6133C144.125 41.1211 143.357 40.4473 142.795 39.5918C142.232 38.7363 141.951 37.7637 141.951 36.6738C141.951 35.666 142.139 34.7754 142.514 34.002C142.889 33.2285 143.445 32.5781 144.184 32.0508C144.922 31.5117 145.836 31.1074 146.926 30.8379C148.027 30.5566 149.287 30.416 150.705 30.416H153.834ZM166.596 27.041V42H161.955V22.9805H166.314L166.596 27.041ZM165.857 31.8047H164.486C164.498 30.4219 164.686 29.168 165.049 28.043C165.412 26.918 165.922 25.9512 166.578 25.1426C167.246 24.334 168.037 23.7129 168.951 23.2793C169.865 22.8457 170.885 22.6289 172.01 22.6289C172.924 22.6289 173.75 22.7578 174.488 23.0156C175.227 23.2734 175.859 23.6836 176.387 24.2461C176.926 24.8086 177.336 25.5469 177.617 26.4609C177.91 27.3633 178.057 28.4766 178.057 29.8008V42H173.381V29.7656C173.381 28.8984 173.252 28.2129 172.994 27.709C172.748 27.2051 172.385 26.8477 171.904 26.6367C171.436 26.4258 170.855 26.3203 170.164 26.3203C169.449 26.3203 168.822 26.4668 168.283 26.7598C167.756 27.041 167.311 27.4336 166.947 27.9375C166.596 28.4414 166.326 29.0215 166.139 29.6777C165.951 30.334 165.857 31.043 165.857 31.8047ZM197.48 33.5801H202.314C202.186 35.291 201.711 36.8086 200.891 38.1328C200.07 39.4453 198.928 40.4766 197.463 41.2266C195.998 41.9766 194.223 42.3516 192.137 42.3516C190.531 42.3516 189.084 42.0703 187.795 41.5078C186.518 40.9336 185.422 40.1191 184.508 39.0645C183.605 37.998 182.914 36.7207 182.434 35.2324C181.953 33.7324 181.713 32.0508 181.713 30.1875V28.2363C181.713 26.373 181.959 24.6914 182.451 23.1914C182.943 21.6914 183.646 20.4141 184.561 19.3594C185.486 18.293 186.594 17.4727 187.883 16.8984C189.184 16.3242 190.637 16.0371 192.242 16.0371C194.328 16.0371 196.092 16.4238 197.533 17.1973C198.975 17.959 200.094 19.0078 200.891 20.3438C201.688 21.6797 202.168 23.2148 202.332 24.9492H197.498C197.404 23.8711 197.17 22.957 196.795 22.207C196.432 21.457 195.881 20.8887 195.143 20.502C194.416 20.1035 193.449 19.9043 192.242 19.9043C191.305 19.9043 190.479 20.0801 189.764 20.4316C189.061 20.7832 188.475 21.3105 188.006 22.0137C187.537 22.7051 187.186 23.5723 186.951 24.6152C186.717 25.6465 186.6 26.8418 186.6 28.2012V30.1875C186.6 31.4883 186.705 32.6543 186.916 33.6855C187.127 34.7168 187.455 35.5898 187.9 36.3047C188.346 37.0195 188.92 37.5645 189.623 37.9395C190.326 38.3145 191.164 38.502 192.137 38.502C193.32 38.502 194.281 38.3145 195.02 37.9395C195.77 37.5645 196.338 37.0137 196.725 36.2871C197.123 35.5605 197.375 34.6582 197.48 33.5801ZM204.881 32.6836V32.3145C204.881 30.9199 205.08 29.6367 205.479 28.4648C205.877 27.2812 206.457 26.2559 207.219 25.3887C207.98 24.5215 208.912 23.8477 210.014 23.3672C211.115 22.875 212.369 22.6289 213.775 22.6289C215.205 22.6289 216.471 22.875 217.572 23.3672C218.686 23.8477 219.623 24.5215 220.385 25.3887C221.146 26.2559 221.727 27.2812 222.125 28.4648C222.523 29.6367 222.723 30.9199 222.723 32.3145V32.6836C222.723 34.0664 222.523 35.3496 222.125 36.5332C221.727 37.7051 221.146 38.7305 220.385 39.6094C219.623 40.4766 218.691 41.1504 217.59 41.6309C216.488 42.1113 215.229 42.3516 213.811 42.3516C212.404 42.3516 211.145 42.1113 210.031 41.6309C208.918 41.1504 207.98 40.4766 207.219 39.6094C206.457 38.7305 205.877 37.7051 205.479 36.5332C205.08 35.3496 204.881 34.0664 204.881 32.6836ZM209.521 32.3145V32.6836C209.521 33.5156 209.604 34.2949 209.768 35.0215C209.932 35.748 210.184 36.3867 210.523 36.9375C210.863 37.4883 211.303 37.9219 211.842 38.2383C212.393 38.543 213.049 38.6953 213.811 38.6953C214.561 38.6953 215.205 38.543 215.744 38.2383C216.283 37.9219 216.723 37.4883 217.062 36.9375C217.414 36.3867 217.672 35.748 217.836 35.0215C218 34.2949 218.082 33.5156 218.082 32.6836V32.3145C218.082 31.4941 218 30.7266 217.836 30.0117C217.672 29.2852 217.414 28.6465 217.062 28.0957C216.723 27.5332 216.277 27.0938 215.727 26.7773C215.188 26.4492 214.537 26.2852 213.775 26.2852C213.025 26.2852 212.381 26.4492 211.842 26.7773C211.303 27.0938 210.863 27.5332 210.523 28.0957C210.184 28.6465 209.932 29.2852 209.768 30.0117C209.604 30.7266 209.521 31.4941 209.521 32.3145ZM237.506 37.957V15H242.182V42H237.963L237.506 37.957ZM225.289 32.7188V32.3496C225.289 30.8965 225.453 29.5781 225.781 28.3945C226.121 27.1992 226.613 26.1738 227.258 25.3184C227.902 24.4629 228.682 23.8008 229.596 23.332C230.521 22.8633 231.57 22.6289 232.742 22.6289C233.879 22.6289 234.869 22.8574 235.713 23.3145C236.568 23.7715 237.295 24.4219 237.893 25.2656C238.502 26.1094 238.988 27.1113 239.352 28.2715C239.715 29.4199 239.979 30.6855 240.143 32.0684V33.0703C239.979 34.418 239.715 35.6543 239.352 36.7793C238.988 37.9043 238.502 38.8887 237.893 39.7324C237.295 40.5645 236.568 41.209 235.713 41.666C234.857 42.123 233.855 42.3516 232.707 42.3516C231.547 42.3516 230.504 42.1113 229.578 41.6309C228.664 41.1504 227.885 40.4766 227.24 39.6094C226.607 38.7422 226.121 37.7227 225.781 36.5508C225.453 35.3789 225.289 34.1016 225.289 32.7188ZM229.947 32.3496V32.7188C229.947 33.5391 230.018 34.3066 230.158 35.0215C230.299 35.7363 230.527 36.3691 230.844 36.9199C231.16 37.459 231.564 37.8809 232.057 38.1855C232.561 38.4902 233.17 38.6426 233.885 38.6426C234.799 38.6426 235.549 38.4434 236.135 38.0449C236.732 37.6348 237.195 37.0781 237.523 36.375C237.852 35.6602 238.062 34.8574 238.156 33.9668V31.207C238.109 30.5039 237.986 29.8535 237.787 29.2559C237.6 28.6582 237.33 28.1426 236.979 27.709C236.639 27.2754 236.217 26.9355 235.713 26.6895C235.209 26.4434 234.611 26.3203 233.92 26.3203C233.205 26.3203 232.596 26.4785 232.092 26.7949C231.588 27.0996 231.178 27.5273 230.861 28.0781C230.545 28.6289 230.311 29.2676 230.158 29.9941C230.018 30.7207 229.947 31.5059 229.947 32.3496ZM254.926 42.3516C253.484 42.3516 252.189 42.1172 251.041 41.6484C249.893 41.1797 248.914 40.5293 248.105 39.6973C247.309 38.8535 246.693 37.875 246.26 36.7617C245.838 35.6367 245.627 34.4297 245.627 33.1406V32.4375C245.627 30.9727 245.838 29.6426 246.26 28.4473C246.682 27.2402 247.279 26.2031 248.053 25.3359C248.826 24.4688 249.752 23.8008 250.83 23.332C251.908 22.8633 253.098 22.6289 254.398 22.6289C255.746 22.6289 256.936 22.8574 257.967 23.3145C258.998 23.7598 259.859 24.3926 260.551 25.2129C261.242 26.0332 261.764 27.0176 262.115 28.166C262.467 29.3027 262.643 30.5625 262.643 31.9453V33.8965H247.736V30.6973H258.072V30.3457C258.049 29.6074 257.908 28.9336 257.65 28.3242C257.393 27.7031 256.994 27.2109 256.455 26.8477C255.916 26.4727 255.219 26.2852 254.363 26.2852C253.672 26.2852 253.068 26.4375 252.553 26.7422C252.049 27.0352 251.627 27.457 251.287 28.0078C250.959 28.5469 250.713 29.1914 250.549 29.9414C250.385 30.6914 250.303 31.5234 250.303 32.4375V33.1406C250.303 33.9375 250.408 34.6758 250.619 35.3555C250.842 36.0352 251.164 36.627 251.586 37.1309C252.02 37.623 252.535 38.0098 253.133 38.291C253.742 38.5605 254.434 38.6953 255.207 38.6953C256.18 38.6953 257.059 38.5078 257.844 38.1328C258.641 37.7461 259.332 37.1777 259.918 36.4277L262.256 38.8535C261.857 39.4395 261.318 40.002 260.639 40.541C259.971 41.0801 259.162 41.5195 258.213 41.8594C257.264 42.1875 256.168 42.3516 254.926 42.3516Z" fill="white"/>
</svg>
