<svg width="79" height="59" viewBox="0 0 79 59" fill="none" xmlns="http://www.w3.org/2000/svg">
<path fill-rule="evenodd" clip-rule="evenodd" d="M30.0706 1.63815C59.0706 -1.36183 64.0706 -0.361849 71.0706 5.63815C77.5131 11.1603 82.0706 23.6382 75.0706 37.6382C68.0706 51.6382 60.8908 57.1536 52.0706 58.6382C46.0201 59.6565 28.0706 53.6382 10.0706 37.6382C0.0152434 28.7001 -1.42941 20.6382 1.07059 15.6382C4.07059 9.63817 10.3785 6.53554 16.0706 4.63817C22.0706 2.63817 25.0607 2.15641 30.0706 1.63815ZM46.4896 31.5793C46.5736 31.7119 46.6694 31.8386 46.7769 31.9592L46.7722 31.9703C46.5847 32.4789 46.3243 33.0311 45.9909 33.6269C45.6784 34.2082 45.2722 34.7532 44.7722 35.2618C44.293 35.7559 43.7097 36.1701 43.0222 36.5043C42.3347 36.824 41.543 36.9839 40.6472 36.9839C39.7722 36.9839 38.9805 36.8022 38.2722 36.4389C38.1958 36.3986 38.1202 36.3567 38.0454 36.3133C38.1069 35.9333 38.1916 35.5542 38.2995 35.176C38.5504 34.2868 38.9857 33.4526 39.6055 32.6733C39.8416 32.3935 40.1073 32.1188 40.4024 31.849C40.7123 31.5693 41.0517 31.3195 41.4206 31.0997C41.8043 30.8799 42.2175 30.7051 42.6602 30.5752C43.1177 30.4353 43.6046 30.3654 44.1211 30.3654C44.6376 30.3654 45.0435 30.4253 45.3386 30.5452C45.6337 30.6651 45.8698 30.815 46.0469 30.9948C46.224 31.1746 46.3716 31.3695 46.4896 31.5793ZM34.6472 38.488C34.6472 38.4046 34.6479 38.3208 34.6493 38.2366C33.9519 37.841 33.3262 37.3871 32.7722 36.8749C31.8764 36.032 31.1368 35.0947 30.5534 34.0629C29.9909 33.0311 29.543 31.9993 29.2097 30.9675C28.7097 29.4707 28.3243 27.9739 28.0534 26.4771C27.7826 24.9657 27.6472 23.4544 27.6472 21.943C27.6472 21.0566 27.6993 20.141 27.8034 19.1964C27.9284 18.2518 28.1368 17.3218 28.4284 16.4062C28.7201 15.4762 29.1159 14.5824 29.6159 13.725C30.1159 12.8531 30.7409 12.0538 31.4909 11.3272C32.2409 10.5861 33.1264 9.93212 34.1472 9.36536C35.1889 8.79861 36.3972 8.35537 37.7722 8.03566C38.2722 7.90487 38.793 7.81768 39.3347 7.77408C39.8764 7.71595 40.418 7.68689 40.9597 7.68689C42.043 7.68689 43.0743 7.81041 44.0534 8.05746C45.0326 8.30451 45.8868 8.65328 46.6159 9.10378C47.3659 9.55428 47.9493 10.0992 48.3659 10.7387C48.8034 11.3781 49.0222 12.0902 49.0222 12.8749C49.0222 13.1365 48.9389 13.3327 48.7722 13.4635C48.6055 13.5942 48.3139 13.6596 47.8972 13.6596C47.1264 13.6596 46.5222 13.5724 46.0847 13.3981C45.668 13.2237 45.3243 13.0057 45.0534 12.7441C44.7826 12.4825 44.5534 12.1992 44.3659 11.894C44.1993 11.5888 43.9909 11.3054 43.7409 11.0438C43.4909 10.7823 43.1576 10.5643 42.7409 10.3899C42.3243 10.2155 41.7514 10.1283 41.0222 10.1283C40.293 10.1283 39.6055 10.23 38.9597 10.4335C38.3347 10.6224 37.7514 10.8767 37.2097 11.1964C36.6889 11.5161 36.2097 11.8794 35.7722 12.2863C35.3555 12.6787 34.9805 13.0784 34.6472 13.4853C33.7722 14.6188 33.1576 15.8322 32.8034 17.1256C32.4493 18.4044 32.2722 19.6905 32.2722 20.9839C32.2722 21.4199 32.293 21.9866 32.3347 22.6842C32.3972 23.3672 32.4805 24.1229 32.5847 24.9512C32.7097 25.7795 32.8764 26.6587 33.0847 27.5888C33.293 28.5043 33.543 29.4053 33.8347 30.2918C34.1472 31.1783 34.5118 32.0284 34.9284 32.8422C35.1169 33.1927 35.3149 33.5243 35.5227 33.8371C35.6732 33.4965 35.8462 33.1635 36.0417 32.8381C36.3959 32.2387 36.8386 31.6892 37.3698 31.1896C37.9011 30.6801 38.5283 30.2305 39.2514 29.8408C39.9892 29.4512 40.8451 29.1465 41.8191 28.9267C42.1732 28.8368 42.5421 28.7768 42.9258 28.7468C43.3095 28.7069 43.6932 28.6869 44.0769 28.6869C44.8442 28.6869 47.5005 29.017 48.1941 29.1869C48.8876 29.3567 50.3212 30.0556 50.8377 30.3654C51.2837 30.6254 51.3434 30.718 51.5257 31.0013C51.5606 31.0554 51.5999 31.1164 51.6472 31.1869C52.0122 31.7305 51.8688 32.477 51.5776 33.1042C51.5545 33.1767 51.5256 33.2492 51.4909 33.3218C51.4076 33.5252 51.3139 33.7287 51.2097 33.9321C50.7514 34.7605 50.1889 35.5307 49.5222 36.2427C48.8555 36.9403 48.0847 37.5434 47.2097 38.052C46.3347 38.5606 45.3451 38.9603 44.2409 39.2509C43.1368 39.5416 41.918 39.6869 40.5847 39.6869C39.6602 39.6869 38.8038 39.6156 38.0155 39.473C38.0519 39.8113 38.0949 40.1724 38.1446 40.5561C38.2331 41.1256 38.3512 41.73 38.4987 42.3695C38.6463 42.9989 38.8234 43.6183 39.03 44.2278C39.2514 44.8372 39.5096 45.4217 39.8047 45.9812C40.1146 46.5407 40.4614 47.0302 40.8451 47.4498C41.2435 47.8695 41.6862 48.2041 42.1732 48.4539C42.675 48.7037 43.2357 48.8286 43.8555 48.8286C44.4901 48.8286 45.0508 48.7187 45.5378 48.4989C46.0248 48.2691 46.438 47.9843 46.7774 47.6447C47.1316 47.295 47.4193 46.9203 47.6407 46.5207C47.8768 46.1111 48.0612 45.7314 48.1941 45.3817C48.2383 45.2818 48.2752 45.1919 48.3047 45.112C48.349 45.032 48.4007 44.9621 48.4597 44.9021C48.5335 44.8422 48.622 44.7972 48.7253 44.7673C48.8286 44.7373 48.9762 44.7223 49.168 44.7223C49.3746 44.7223 49.6181 44.7523 49.8985 44.8122C50.1936 44.8622 50.4666 44.9371 50.7175 45.037C50.9831 45.1369 51.2045 45.2568 51.3816 45.3967C51.5586 45.5366 51.6472 45.6914 51.6472 45.8613C51.6472 46.0111 51.6103 46.161 51.5365 46.3109C51.4775 46.4507 51.4111 46.5906 51.3373 46.7305C51.0126 47.3 50.6142 47.8295 50.142 48.319C49.6698 48.7986 49.1237 49.2132 48.504 49.5629C47.8842 49.9126 47.1832 50.1873 46.4011 50.3872C45.619 50.587 44.7557 50.6869 43.8112 50.6869C42.5569 50.6869 41.4796 50.5071 40.5795 50.1474C39.6793 49.7877 38.9119 49.3231 38.2774 48.7536C37.6428 48.1742 37.119 47.5298 36.7058 46.8204C36.3073 46.1111 35.9901 45.4017 35.754 44.6923C35.3998 43.6633 35.1268 42.6342 34.9349 41.6051C34.7431 40.5661 34.6472 39.527 34.6472 38.488Z" fill="#393B40"/>
</svg>
